<?xml version="1.0" standalone="no"?>
<!DOCTYPE svg PUBLIC "-//W3C//DTD SVG 20010904//EN"
 "http://www.w3.org/TR/2001/REC-SVG-20010904/DTD/svg10.dtd">
<svg version="1.0" xmlns="http://www.w3.org/2000/svg"
 width="320.000000pt" height="320.000000pt" viewBox="0 0 320.000000 320.000000"
 preserveAspectRatio="xMidYMid meet">
<metadata>
Created by potrace 1.14, written by Peter Selinger 2001-2017
</metadata>
<g transform="translate(0.000000,320.000000) scale(0.100000,-0.100000)"
fill="#000000" stroke="none">
<path d="M1389 3185 c-873 -119 -1490 -924 -1374 -1790 8 -60 15 -111 15 -112
0 -8 660 -2 664 6 3 4 38 18 77 31 86 27 156 24 218 -8 23 -12 45 -22 50 -22
25 0 128 280 230 625 48 163 161 600 185 717 8 37 34 60 64 56 52 -6 53 -25
11 -253 -21 -115 -53 -286 -69 -380 -17 -93 -50 -282 -75 -420 -25 -137 -46
-260 -47 -273 -3 -23 0 -24 82 -26 l85 -2 145 73 c98 49 156 73 180 73 25 0
66 -18 145 -65 184 -109 161 -106 720 -103 l480 3 12 90 c62 477 -111 979
-457 1325 -350 350 -854 521 -1341 455z"/>
<path d="M1221 1423 c-29 -82 -95 -204 -123 -228 -40 -34 -78 -32 -132 7 -59
41 -114 41 -199 0 l-62 -30 -318 0 c-175 0 -321 -2 -323 -5 -8 -7 56 -179 102
-274 296 -608 965 -967 1636 -878 615 81 1118 494 1313 1079 20 59 35 110 33
112 -3 2 -227 4 -499 5 l-494 0 -70 29 c-39 15 -109 51 -155 79 -47 28 -93 51
-103 51 -9 0 -81 -32 -159 -72 -143 -71 -163 -77 -248 -66 -23 3 -27 -5 -73
-127 -119 -321 -120 -324 -170 -311 -35 8 -42 40 -28 119 6 34 29 163 51 287
22 124 43 233 46 243 11 34 -12 16 -25 -20z"/>
</g>
</svg>
